# xmcd
#
# Track frame offsets: 
#        150
#        20595
#        31317
#        44795
#        60892
#        77955
#        97935
#        117298
#        130650
#        150588
#        164463
#        176332
#        191645
#        204682
#        228588
#        245845
#        266417
#        285687
#
# Disc length: 4038 seconds
#
# Revision: 2
# Processed by: cddbd v1.5.2PL0 Copyright (c) Steve Scherf et al.
# Submitted via: ExactAudioCopy v1.0b3
#
DISCID=f80fc412
DTITLE=THE ROLLING STONES - EXILE ON MAIN STREET (COLLECTOR'S EDITION)
DYEAR=1972
DGENRE=Rock
TTITLE0=Rocks Off (1994 Remaster)
TTITLE1=Rip This Joint (1994 Remaster)
TTITLE2=Shake Your Hips (1994 Remaster)
TTITLE3=Casino Boogie (1994 Remaster)
TTITLE4=Tumbling Dice (1994 Remaster)
TTITLE5=Sweet Virginia (1994 Remaster)
TTITLE6=Torn And Frayed (1994 Remaster)
TTITLE7=Sweet Black Angel (1994 Remaster)
TTITLE8=Loving Cup (1994 Remaster)
TTITLE9=Happy (1994 Remaster)
TTITLE10=Turd On The Run (1994 Remaster)
TTITLE11=Ventilator Blues (1994 Remaster)
TTITLE12=I Just Want To See His Face (1994 Remaster)
TTITLE13=Let It Loose (1994 Remaster)
TTITLE14=All Down The Line (1994 Remaster)
TTITLE15=Stop Breaking Down (1994 Remaster)
TTITLE16=Shine A Light (1994 Remaster)
TTITLE17=Soul Survivor (1994 Remaster)
EXTD=
EXTT0=
EXTT1=
EXTT2=
EXTT3=
EXTT4=
EXTT5=
EXTT6=
EXTT7=
EXTT8=
EXTT9=
EXTT10=
EXTT11=
EXTT12=
EXTT13=
EXTT14=
EXTT15=
EXTT16=
EXTT17=
PLAYORDER=
